<?xml version="1.0" standalone="no"?>
<!DOCTYPE svg PUBLIC "-//W3C//DTD SVG 20010904//EN"
 "http://www.w3.org/TR/2001/REC-SVG-20010904/DTD/svg10.dtd">
<svg version="1.0" xmlns="http://www.w3.org/2000/svg"
 width="500.000000pt" height="500.000000pt" viewBox="0 0 500.000000 500.000000"
 preserveAspectRatio="xMidYMid meet">
<metadata>
Created by potrace 1.14, written by Peter Selinger 2001-2017
</metadata>
<g transform="translate(0.000000,500.000000) scale(0.100000,-0.100000)"
fill="#000000" stroke="none">
<path d="M0 2500 l0 -2500 2500 0 2500 0 0 2500 0 2500 -2500 0 -2500 0 0
-2500z m3330 1131 c162 -48 303 -147 394 -275 92 -129 132 -247 143 -413 l6
-103 -217 0 -218 0 -29 29 c-22 22 -29 39 -29 68 0 47 -38 129 -76 165 -16 15
-49 36 -74 47 -44 20 -63 21 -729 21 -490 0 -695 -3 -722 -12 -52 -15 -117
-73 -140 -122 -17 -38 -19 -76 -19 -536 0 -556 -1 -542 75 -609 80 -70 36 -66
793 -64 459 2 698 6 725 14 84 22 167 136 167 228 0 23 9 42 29 62 l29 29 218
0 217 0 -6 -107 c-10 -158 -43 -262 -121 -382 -81 -124 -223 -236 -366 -289
-113 -41 -170 -44 -925 -40 -800 4 -764 1 -912 73 -187 92 -323 253 -384 455
-23 73 -23 88 -27 594 -3 563 0 607 52 736 98 241 334 422 586 449 30 3 377 6
770 5 709 -1 716 -1 790 -23z m-580 -922 c229 -129 256 -154 247 -222 -3 -22
-15 -50 -27 -62 -19 -20 -292 -182 -561 -333 l-56 -32 -107 273 c-100 257
-106 277 -106 345 l0 72 83 -45 c46 -25 88 -45 93 -45 5 0 24 44 43 98 19 53
38 107 42 120 l9 23 67 -38 c38 -20 160 -90 273 -154z"/>
</g>
</svg>
